# xmcd
#
# Track frame offsets:
#	150
#	119920
#	223181
#
# Disc length: 4268 seconds
#
# Revision: 0
# Processed by: cddbd v1.4PL0 Copyright (c) Steve Scherf et al.
# Submitted via: audiograbber 1.81.02
#
DISCID=3010aa03
DTITLE=Allman Brothers - 6/9/73, RFK Stadium, Washington D.C. Disc 3
DYEAR=1900
DGENRE=
TTITLE0=Les Brers In A Minor (just the first few notes)
TTITLE1=Whipping Post
TTITLE2=Mountain Jam
EXTD=
EXTT0=
EXTT1=
EXTT2=
PLAYORDER=
